HIERARCHY
ROOT Pelvis
{
	OFFSET 0.000000 0.000000 0.000000
	CHANNELS 6 Xposition Yposition Zposition Xrotation Yrotation Zrotation
	JOINT LeftUpLeg_virtual
	{
		OFFSET 0.000000 0.000000 0.000000
		CHANNELS 3 Xrotation Yrotation Zrotation
		JOINT LeftUpLeg
		{
			OFFSET 18.735201 -5.666702 -4.541200
			CHANNELS 3 Xrotation Yrotation Zrotation
			JOINT LeftLeg
			{
				OFFSET -0.021200 -31.938179 0.493100
				CHANNELS 3 Xrotation Yrotation Zrotation
				JOINT LeftFoot
				{
					OFFSET 0.021200 -31.938179 -4.336299
					CHANNELS 3 Xrotation Yrotation Zrotation
					JOINT LeftToeBase
					{
						OFFSET 0.943001 -26.722000 15.023500
						CHANNELS 3 Xrotation Yrotation Zrotation
						End Site
						{
							OFFSET 0 0 0
						}
					}
				}
			}
		}
	}
	JOINT RightUpLeg_virtual
	{
		OFFSET 0.000000 0.000000 0.000000
		CHANNELS 3 Xrotation Yrotation Zrotation
		JOINT RightUpLeg
		{
			OFFSET -18.735201 -5.666702 -4.541200
			CHANNELS 3 Xrotation Yrotation Zrotation
			JOINT RightLeg
			{
				OFFSET 0.018946 -31.938133 0.493100
				CHANNELS 3 Xrotation Yrotation Zrotation
				JOINT RightFoot
				{
					OFFSET -0.018946 -31.938126 -4.336299
					CHANNELS 3 Xrotation Yrotation Zrotation
					JOINT RightToeBase
					{
						OFFSET -0.943001 -26.722004 15.023500
						CHANNELS 3 Xrotation Yrotation Zrotation
						End Site
						{
							OFFSET 0 0 0
						}
					}
				}
			}
		}
	}
	JOINT Hips_virtual
	{
		OFFSET 0.000000 0.000000 0.000000
		CHANNELS 3 Xrotation Yrotation Zrotation
		JOINT Hips
		{
			OFFSET -0.000000 -0.000000 -0.000000
			CHANNELS 3 Xrotation Yrotation Zrotation
			JOINT Spine
			{
				OFFSET 0.000000 10.199997 -0.299500
				CHANNELS 3 Xrotation Yrotation Zrotation
				JOINT Spine1
				{
					OFFSET 0.000000 11.900002 -1.516600
					CHANNELS 3 Xrotation Yrotation Zrotation
					JOINT Spine2
					{
						OFFSET 0.000000 13.600006 -2.842500
						CHANNELS 3 Xrotation Yrotation Zrotation
						JOINT Neck_virtual
						{
							OFFSET 0.000000 0.000000 0.000000
							CHANNELS 3 Xrotation Yrotation Zrotation
							JOINT Neck
							{
								OFFSET 0.000000 9.624100 -2.890100
								CHANNELS 3 Xrotation Yrotation Zrotation
								JOINT Head
								{
									OFFSET 0.000000 14.068802 -1.351900
									CHANNELS 3 Xrotation Yrotation Zrotation
									End Site
									{
										OFFSET 0 0 0
									}
								}
							}
						}
						JOINT LeftShoulder_virtual
						{
							OFFSET 0.000000 0.000000 0.000000
							CHANNELS 3 Xrotation Yrotation Zrotation
							JOINT LeftShoulder
							{
								OFFSET 15.263000 10.923401 -0.547700
								CHANNELS 3 Xrotation Yrotation Zrotation
								JOINT LeftArm
								{
									OFFSET 25.438599 -2.830597 -13.032500
									CHANNELS 3 Xrotation Yrotation Zrotation
									JOINT LeftForeArm
									{
										OFFSET 29.960503 0.000000 0.000000
										CHANNELS 3 Xrotation Yrotation Zrotation
										JOINT LeftHand
										{
											OFFSET 27.849251 0.000000 0.000000
											CHANNELS 3 Xrotation Yrotation Zrotation
											End Site
											{
												OFFSET 0 0 0
											}
										}
									}
								}
							}
						}
						JOINT RightShoulder_virtual
						{
							OFFSET 0.000000 0.000000 0.000000
							CHANNELS 3 Xrotation Yrotation Zrotation
							JOINT RightShoulder
							{
								OFFSET -15.263000 10.923401 -0.547700
								CHANNELS 3 Xrotation Yrotation Zrotation
								JOINT RightArm
								{
									OFFSET -25.438599 -2.830597 -13.032500
									CHANNELS 3 Xrotation Yrotation Zrotation
									JOINT RightForeArm
									{
										OFFSET -29.960503 0.000000 0.000000
										CHANNELS 3 Xrotation Yrotation Zrotation
										JOINT RightHand
										{
											OFFSET -27.849251 0.000000 0.000000
											CHANNELS 3 Xrotation Yrotation Zrotation
											End Site
											{
												OFFSET 0 0 0
											}
										}
									}
								}
							}
						}
					}
				}
			}
		}
	}
}
MOTION
Frames: 13
Frame Time: 0.03333333
-4.647561 36.077923 78.712997 0.000000 0.000000 0.000000 24.205028 -26.670149 -7.941103 -10.363217 12.586600 8.856125 103.409085 -21.675540 0.316844 40.810524 -9.420013 -24.569826 0.000000 0.000000 0.000000 25.144923 -25.227030 -8.970690 -11.183503 23.574418 -4.684373 60.930519 13.934244 -10.701491 60.875700 12.410686 33.920550 0.000000 0.000000 0.000000 23.753579 -26.000975 -7.188820 -2.889887 -2.311892 -1.108004 5.737633 1.270901 4.432769 -5.370514 1.659743 0.850447 0.000000 0.000000 0.000000 -4.403353 1.948055 0.803956 -11.836349 0.106775 2.833756 0.000000 0.000000 0.000000 -4.953927 2.038761 0.894060 -17.452808 1.643796 -11.974771 1.133694 7.777779 -53.685188 59.980495 -34.974947 33.069488 0.000000 0.000000 0.000000 -4.617733 2.341788 0.912788 -16.136573 2.852907 14.721715 4.554949 -2.226739 54.753966 13.279497 20.905624 3.895053 0.000000 0.000000 0.000000 
-4.310767 35.899536 80.897720 0.000000 0.000000 0.000000 26.354162 -27.846316 -8.111598 -8.764854 12.731620 7.859290 99.938461 -21.928220 0.073182 38.896472 -8.740605 -26.454825 0.000000 0.000000 0.000000 26.526324 -26.234523 -9.413058 -11.264405 22.089484 -4.348609 60.217864 13.122845 -10.472538 61.735662 11.084181 32.543208 0.000000 0.000000 0.000000 25.479802 -27.454709 -7.379976 -3.185790 -2.463358 -1.220920 5.627542 1.338920 4.962710 -5.720884 1.737768 0.867159 0.000000 0.000000 0.000000 -4.904992 2.033760 0.833283 -12.370333 0.085522 3.178023 0.000000 0.000000 0.000000 -5.185053 2.073117 0.921059 -17.388205 2.049225 -10.878885 0.139850 12.422577 -50.699739 61.827391 -34.754680 31.774088 0.000000 0.000000 0.000000 -5.041178 2.429695 1.003315 -15.858328 2.328006 15.552518 4.800792 -1.855921 53.957887 6.333542 26.290250 6.298391 0.000000 0.000000 0.000000 
-4.033309 35.692192 83.079552 0.000000 0.000000 0.000000 28.968933 -29.413404 -7.707303 -7.109389 11.415959 6.896191 96.366258 -21.841041 0.313301 36.886590 -8.550963 -29.603764 0.000000 0.000000 0.000000 28.540475 -27.550027 -9.229864 -10.993270 21.021690 -3.935616 59.363216 12.818902 -10.616518 63.563755 10.452289 30.965923 0.000000 0.000000 0.000000 27.546114 -28.723459 -7.269333 -3.379857 -2.266985 -1.160518 5.666015 1.275832 5.437282 -6.061635 1.824728 0.962512 0.000000 0.000000 0.000000 -5.405930 2.108486 0.895364 -12.972717 0.085683 3.378860 0.000000 0.000000 0.000000 -5.374706 2.097821 0.959694 -17.381831 2.028303 -10.269278 0.063811 14.685513 -47.092962 61.769656 -35.437603 29.786684 0.000000 0.000000 0.000000 -5.336136 2.534142 1.131362 -15.718857 1.855019 16.273088 5.898024 -0.096375 53.750853 0.496137 34.028508 7.928396 0.000000 0.000000 0.000000 
-3.788322 35.379845 85.187637 0.000000 0.000000 0.000000 32.359206 -30.957245 -6.746683 -5.955671 8.821431 6.118119 92.372407 -21.636190 0.763017 36.089306 -9.411338 -33.651584 0.000000 0.000000 0.000000 31.652582 -28.811862 -8.483401 -10.161681 20.484157 -3.758951 57.668448 13.215186 -10.847338 64.770056 10.591136 30.143059 0.000000 0.000000 0.000000 30.220811 -29.539202 -6.889510 -3.326277 -1.816269 -1.231465 5.796679 1.075638 5.785002 -6.328070 1.894450 1.135201 0.000000 0.000000 0.000000 -5.749621 2.167243 0.999186 -13.593413 0.102005 3.433964 0.000000 0.000000 0.000000 -5.523402 2.112832 1.035526 -17.490323 1.563224 -10.060894 0.445716 14.838521 -43.337994 59.606255 -36.495067 26.972736 0.000000 0.000000 0.000000 -5.435213 2.606429 1.266486 -15.772013 1.308420 16.736310 7.377891 2.082012 53.752923 -3.580451 42.200863 8.471205 0.000000 0.000000 0.000000 
-3.722737 34.870865 87.013870 0.000000 0.000000 0.000000 36.544189 -31.623257 -5.709103 -5.811936 6.168012 5.531931 87.941609 -20.954211 0.789156 37.258303 -10.685665 -37.142214 0.000000 0.000000 0.000000 35.770264 -29.516492 -7.536173 -9.209403 19.896582 -3.792274 56.109936 13.904408 -10.756336 65.269315 11.253155 30.279827 0.000000 0.000000 0.000000 33.606638 -29.628165 -6.345302 -3.141612 -1.521566 -1.366448 5.889265 0.759974 5.931752 -6.469743 1.896412 1.353151 0.000000 0.000000 0.000000 -5.915848 2.187883 1.165000 -14.200785 0.123489 3.358286 0.000000 0.000000 0.000000 -5.627751 2.113572 1.160051 -17.758314 0.777297 -10.008543 1.029804 13.707816 -39.933077 55.846393 -37.847878 23.787648 0.000000 0.000000 0.000000 -5.351897 2.631148 1.371894 -15.951994 0.555925 16.821822 9.365356 3.905971 53.314619 -4.874764 49.241330 7.181545 0.000000 0.000000 0.000000 
-3.657276 34.166073 88.742294 0.000000 0.000000 0.000000 41.070996 -30.984494 -5.069742 -6.683242 3.770393 4.697352 83.282040 -19.423123 0.339154 39.675237 -11.492619 -39.247524 0.000000 0.000000 0.000000 40.533570 -29.148269 -6.858360 -8.550773 18.879078 -3.849861 55.331373 14.461128 -10.261706 66.183317 12.085566 30.870607 0.000000 0.000000 0.000000 37.641627 -28.661014 -5.859513 -2.977050 -1.547587 -1.583194 5.820521 0.402814 5.865427 -6.478036 1.860017 1.581012 0.000000 0.000000 0.000000 -5.914154 2.176259 1.368414 -14.762419 0.157597 3.190991 0.000000 0.000000 0.000000 -5.686867 2.095163 1.310918 -18.139190 -0.035411 -9.956019 1.956580 12.097758 -37.213931 51.361575 -39.691411 20.891424 0.000000 0.000000 0.000000 -5.094747 2.602220 1.428393 -16.194607 -0.363582 16.326007 12.350577 4.891008 52.194041 -2.628905 54.597028 3.449346 0.000000 0.000000 0.000000 
-3.647229 33.232494 90.482140 0.000000 0.000000 0.000000 45.679127 -29.281076 -4.836544 -7.863307 0.704538 3.271816 78.701879 -17.221200 0.356962 41.133653 -10.918311 -39.821536 0.000000 0.000000 0.000000 45.941826 -27.526376 -6.695437 -8.013521 17.494999 -3.579436 54.333185 14.605748 -9.473549 67.593321 12.443331 31.283219 0.000000 0.000000 0.000000 42.179611 -26.618864 -5.594570 -2.842074 -1.801315 -1.879534 5.550441 0.122431 5.597020 -6.398736 1.796356 1.798442 0.000000 0.000000 0.000000 -5.790752 2.134807 1.564866 -15.244366 0.201788 2.985123 0.000000 0.000000 0.000000 -5.680844 2.075899 1.464448 -18.557315 -0.603446 -9.749048 3.676037 10.893306 -35.577728 47.024920 -42.283092 18.857242 0.000000 0.000000 0.000000 -4.768595 2.539275 1.444052 -16.379719 -1.216311 15.275406 16.106757 5.223580 50.690310 3.196563 57.894036 -2.771736 0.000000 0.000000 0.000000 
-3.619226 32.014004 92.483955 0.000000 0.000000 0.000000 50.412892 -26.872228 -4.733952 -8.387345 -3.233868 1.334121 74.178327 -14.891295 1.412117 40.045502 -8.853765 -39.505749 0.000000 0.000000 0.000000 51.708114 -25.303467 -6.717448 -7.254639 16.258569 -2.880514 52.850822 14.287580 -8.874553 68.776644 11.903225 31.344158 0.000000 0.000000 0.000000 46.870063 -23.659036 -5.640346 -2.898862 -1.889566 -1.993780 5.028378 -0.013345 5.190541 -6.290797 1.737223 1.976409 0.000000 0.000000 0.000000 -5.687418 2.059612 1.697444 -15.650610 0.274308 2.771647 0.000000 0.000000 0.000000 -5.616128 2.064413 1.592290 -18.928647 -0.778419 -9.383067 6.393568 10.328581 -34.844791 43.621416 -45.882735 18.012440 0.000000 0.000000 0.000000 -4.485242 2.483463 1.430165 -16.461661 -1.737498 13.615110 20.070688 5.653582 49.174285 11.633357 59.539456 -10.650156 0.000000 0.000000 0.000000 
-3.488559 30.425243 94.897018 0.000000 0.000000 0.000000 55.269652 -24.023312 -4.404506 -7.692934 -6.995337 -0.407277 68.834496 -13.239123 2.994033 36.062784 -6.781793 -39.626726 0.000000 0.000000 0.000000 57.412057 -22.665313 -6.547339 -6.070219 15.462305 -2.301103 50.660947 13.667241 -8.659917 69.922771 11.056309 31.042718 0.000000 0.000000 0.000000 51.636012 -20.320556 -5.731218 -3.052544 -1.993081 -2.139207 4.345703 0.001691 4.762863 -6.184513 1.674487 2.116088 0.000000 0.000000 0.000000 -5.685020 1.963230 1.719028 -15.973280 0.380932 2.579985 0.000000 0.000000 0.000000 -5.476953 2.051928 1.680064 -19.151813 -0.610424 -8.980806 10.229739 10.177533 -34.701749 41.909143 -50.265322 18.583908 0.000000 0.000000 0.000000 -4.328532 2.423963 1.433397 -16.414761 -1.811102 11.450687 23.787741 5.897831 47.806321 21.188729 60.067948 -18.754958 0.000000 0.000000 0.000000 
-3.311677 28.190777 97.539948 0.000000 0.000000 0.000000 60.284001 -20.742981 -3.883225 -6.419349 -9.489036 -1.209206 62.796390 -12.451150 4.396742 30.373527 -5.622595 -40.502059 0.000000 0.000000 0.000000 62.791316 -19.644305 -6.136084 -4.948560 14.729448 -2.346856 48.267304 12.804170 -8.541205 71.131072 10.354360 30.410799 0.000000 0.000000 0.000000 56.419572 -17.062070 -5.612501 -3.112665 -1.652981 -2.261603 3.661445 0.147947 4.347853 -6.076547 1.576307 2.204765 0.000000 0.000000 0.000000 -5.797377 1.856505 1.647955 -16.184360 0.534279 2.413738 0.000000 0.000000 0.000000 -5.288837 2.023978 1.737472 -19.191104 -0.237801 -8.703321 14.803586 10.269878 -34.885509 42.487892 -54.963461 20.747572 0.000000 0.000000 0.000000 -4.354609 2.356484 1.459690 -16.183430 -1.464306 9.154434 27.066423 5.276921 46.450296 30.237374 59.706809 -25.585404 0.000000 0.000000 0.000000 
-3.082302 25.312767 100.375336 0.000000 0.000000 0.000000 65.216081 -17.217037 -3.309266 -5.584476 -10.006061 -1.020739 57.290872 -11.860105 5.209273 25.218305 -4.956056 -41.637697 0.000000 0.000000 0.000000 67.684702 -16.618195 -5.419278 -4.708373 13.836961 -3.147367 46.896434 11.697624 -8.294905 72.133560 9.741231 29.702737 0.000000 0.000000 0.000000 61.256060 -14.033299 -5.098207 -3.094319 -1.159632 -2.321292 3.057043 0.380191 3.990630 -5.976013 1.454030 2.232329 0.000000 0.000000 0.000000 -6.019488 1.743413 1.517990 -16.227602 0.745012 2.276314 0.000000 0.000000 0.000000 -5.114409 1.972924 1.794368 -18.998917 0.198191 -8.698975 19.337357 10.330694 -35.078585 45.705819 -59.143510 24.509791 0.000000 0.000000 0.000000 -4.491372 2.254348 1.523037 -15.817714 -0.816462 7.103663 29.923390 2.894015 44.996675 37.190001 58.911748 -29.585197 0.000000 0.000000 0.000000 
-2.943586 22.110447 103.215729 0.000000 0.000000 0.000000 70.131863 -13.803387 -2.547650 -5.302095 -8.950552 -0.197579 52.211800 -11.116184 5.569774 21.053320 -4.383480 -42.601013 0.000000 0.000000 0.000000 72.404062 -13.434943 -4.590715 -4.916952 12.845232 -4.601122 45.580062 10.433868 -7.764284 72.723804 9.216399 29.137648 0.000000 0.000000 0.000000 66.347590 -11.391193 -4.028501 -2.967095 -0.534442 -2.383999 2.608008 0.627793 3.714203 -5.844714 1.261068 2.230337 0.000000 0.000000 0.000000 -6.221384 1.608282 1.392868 -16.042280 1.007828 2.165614 0.000000 0.000000 0.000000 -4.987398 1.873051 1.861214 -18.544949 0.564280 -9.017850 22.893577 10.341345 -35.172472 51.109602 -61.949256 29.323829 0.000000 0.000000 0.000000 -4.670287 2.082982 1.608384 -15.324455 0.029877 5.641906 32.681209 -1.354599 43.669460 40.900491 57.630944 -29.821716 0.000000 0.000000 0.000000 
-2.975236 19.208252 105.691071 0.000000 0.000000 0.000000 75.131801 -10.590463 -1.674560 -5.603593 -7.678971 0.867844 46.850856 -10.315224 6.009544 16.532189 -3.469496 -43.152981 0.000000 0.000000 0.000000 77.200173 -10.265221 -3.670357 -5.129323 11.456586 -6.364545 43.517420 8.946248 -6.939457 71.806728 8.577717 29.265677 0.000000 0.000000 0.000000 71.759463 -9.170398 -2.474859 -2.661249 0.195471 -2.071808 2.290073 0.824156 3.493957 -5.658057 1.000169 2.193722 0.000000 0.000000 0.000000 -6.289905 1.426088 1.295805 -15.534569 1.330835 2.093435 0.000000 0.000000 0.000000 -4.949809 1.705747 1.914794 -17.818138 0.699988 -9.672506 24.614281 10.084391 -35.221701 57.212509 -63.024013 33.743426 0.000000 0.000000 0.000000 -4.820548 1.830180 1.682859 -14.720781 1.210138 4.879759 35.000714 -5.940051 42.747862 41.009125 55.612042 -26.197920 0.000000 0.000000 0.000000 
